<svg xmlns="http://www.w3.org/2000/svg" viewBox="0 0 100 100" fill="none">
  <!-- Ghost body -->
  <path d="M50 10 C28 10 18 28 18 48 L18 82 C18 84 20 86 22 84 L28 78 L34 84 C36 86 38 86 40 84 L46 78 L52 84 C54 86 56 86 58 84 L64 78 L70 84 C72 86 74 86 76 84 L82 78 L82 48 C82 28 72 10 50 10 Z" fill="#6366f1"/>
  <!-- Left eye white -->
  <ellipse cx="38" cy="44" rx="9" ry="11" fill="white"/>
  <!-- Right eye white -->
  <ellipse cx="62" cy="44" rx="9" ry="11" fill="white"/>
  <!-- Left pupil -->
  <circle cx="39" cy="46" r="4" fill="#1e1b4b"/>
  <!-- Right pupil -->
  <circle cx="63" cy="46" r="4" fill="#1e1b4b"/>
</svg>
