<svg width="120" height="120" viewBox="0 0 120 120" fill="none" xmlns="http://www.w3.org/2000/svg">
<path d="M60 10C32.386 10 10 32.386 10 60C10 87.614 32.386 110 60 110C87.614 110 110 87.614 110 60C110 32.386 87.614 10 60 10Z" fill="#1D63ED"/>
<path d="M60 25C40.67 25 25 40.67 25 60C25 79.33 40.67 95 60 95C79.33 95 95 79.33 95 60C95 40.67 79.33 25 60 25Z" fill="#FFFFFF"/>
<path d="M60 40C48.954 40 40 48.954 40 60C40 71.046 48.954 80 60 80C71.046 80 80 71.046 80 60C80 48.954 71.046 40 60 40Z" fill="#1D63ED"/>
<path d="M45 55L55 45V55H65L55 65V55H45Z" fill="#FFFFFF"/>
<path d="M75 55L65 65V55H55L65 45V55H75Z" fill="#FFFFFF"/>
</svg>